<svg width="39" height="39" viewBox="0 0 39 39" fill="none" xmlns="http://www.w3.org/2000/svg">
<circle cx="19.5" cy="19.5" r="19.5" fill="white"/>
<path d="M28 21.1301V16.8265C27.9978 14.909 27.2436 13.0541 25.8709 11.5902C24.4982 10.1264 22.5956 9.14801 20.5 8.82843V7.35332C20.5 6.99439 20.342 6.65017 20.0607 6.39638C19.7794 6.14258 19.3978 6 19 6C18.6022 6 18.2206 6.14258 17.9393 6.39638C17.658 6.65017 17.5 6.99439 17.5 7.35332V8.82843C15.4044 9.14801 13.5018 10.1264 12.1291 11.5902C10.7564 13.0541 10.0022 14.909 10 16.8265V21.1301C9.12468 21.4093 8.3665 21.9259 7.82941 22.6092C7.29232 23.2924 7.00261 24.1088 7 24.9464V27.653C7 28.012 7.15804 28.3562 7.43934 28.61C7.72064 28.8638 8.10218 29.0064 8.5 29.0064H13.21C13.5554 30.1531 14.3095 31.1655 15.3559 31.8872C16.4023 32.609 17.6828 33 19 33C20.3172 33 21.5977 32.609 22.6441 31.8872C23.6905 31.1655 24.4446 30.1531 24.79 29.0064H29.5C29.8978 29.0064 30.2794 28.8638 30.5607 28.61C30.842 28.3562 31 28.012 31 27.653V24.9464C30.9974 24.1088 30.7077 23.2924 30.1706 22.6092C29.6335 21.9259 28.8753 21.4093 28 21.1301ZM13 16.8265C13 15.3908 13.6321 14.014 14.7574 12.9988C15.8826 11.9836 17.4087 11.4133 19 11.4133C20.5913 11.4133 22.1174 11.9836 23.2426 12.9988C24.3679 14.014 25 15.3908 25 16.8265V20.8865H13V16.8265ZM19 30.3597C18.4765 30.3568 17.9629 30.2304 17.5102 29.993C17.0576 29.7556 16.6818 29.4154 16.42 29.0064H21.58C21.3182 29.4154 20.9424 29.7556 20.4898 29.993C20.0371 30.2304 19.5235 30.3568 19 30.3597ZM28 26.2997H10V24.9464C10 24.5875 10.158 24.2433 10.4393 23.9895C10.7206 23.7357 11.1022 23.5931 11.5 23.5931H26.5C26.8978 23.5931 27.2794 23.7357 27.5607 23.9895C27.842 24.2433 28 24.5875 28 24.9464V26.2997Z" fill="#DB451B"/>
</svg>
