<svg width="18" height="18" viewBox="0 0 18 18" fill="none" xmlns="http://www.w3.org/2000/svg">
<path d="M7.12501 7.87505H9.00001C9.19892 7.87505 9.38968 7.79603 9.53034 7.65538C9.67099 7.51473 9.75 7.32396 9.75 7.12505C9.75 6.92614 9.67099 6.73537 9.53034 6.59472C9.38968 6.45407 9.19892 6.37505 9.00001 6.37505H8.25001V6.00005C8.25001 5.80114 8.17099 5.61037 8.03033 5.46972C7.88968 5.32907 7.69892 5.25005 7.50001 5.25005C7.30109 5.25005 7.11033 5.32907 6.96968 5.46972C6.82902 5.61037 6.75001 5.80114 6.75001 6.00005V6.41255C6.29432 6.50508 5.88928 6.76363 5.6135 7.138C5.33772 7.51237 5.21088 7.97586 5.25761 8.43849C5.30434 8.90112 5.52131 9.32988 5.86638 9.64154C6.21146 9.9532 6.66002 10.1255 7.12501 10.1251H7.87501C7.97446 10.1251 8.06984 10.1646 8.14017 10.2349C8.2105 10.3052 8.25001 10.4006 8.25001 10.5001C8.25001 10.5995 8.2105 10.6949 8.14017 10.7652C8.06984 10.8355 7.97446 10.8751 7.87501 10.8751H6.00001C5.80109 10.8751 5.61033 10.9541 5.46968 11.0947C5.32902 11.2354 5.25001 11.4261 5.25001 11.6251C5.25001 11.824 5.32902 12.0147 5.46968 12.1554C5.61033 12.296 5.80109 12.3751 6.00001 12.3751H6.75001V12.7501C6.75001 12.949 6.82902 13.1397 6.96968 13.2804C7.11033 13.421 7.30109 13.5001 7.50001 13.5001C7.69892 13.5001 7.88968 13.421 8.03033 13.2804C8.17099 13.1397 8.25001 12.949 8.25001 12.7501V12.3376C8.70569 12.245 9.11073 11.9865 9.38651 11.6121C9.66229 11.2377 9.78913 10.7742 9.7424 10.3116C9.69567 9.84899 9.4787 9.42023 9.13363 9.10857C8.78856 8.79691 8.33999 8.62458 7.87501 8.62505H7.12501C7.02555 8.62505 6.93017 8.58554 6.85984 8.51522C6.78951 8.44489 6.75001 8.34951 6.75001 8.25005C6.75001 8.1506 6.78951 8.05521 6.85984 7.98489C6.93017 7.91456 7.02555 7.87505 7.12501 7.87505ZM15.75 9.00005H13.5V2.25005C13.5005 2.11789 13.4661 1.98794 13.4003 1.87336C13.3344 1.75878 13.2395 1.66363 13.125 1.59755C13.011 1.53173 12.8817 1.49707 12.75 1.49707C12.6184 1.49707 12.489 1.53173 12.375 1.59755L10.125 2.88755L7.87501 1.59755C7.76099 1.53173 7.63166 1.49707 7.50001 1.49707C7.36835 1.49707 7.23902 1.53173 7.12501 1.59755L4.87501 2.88755L2.62501 1.59755C2.51099 1.53173 2.38166 1.49707 2.25001 1.49707C2.11835 1.49707 1.98902 1.53173 1.87501 1.59755C1.76055 1.66363 1.66559 1.75878 1.59974 1.87336C1.53389 1.98794 1.49948 2.11789 1.50001 2.25005V14.2501C1.50001 14.8468 1.73706 15.4191 2.15902 15.841C2.58097 16.263 3.15327 16.5001 3.75001 16.5001H14.25C14.8467 16.5001 15.419 16.263 15.841 15.841C16.263 15.4191 16.5 14.8468 16.5 14.2501V9.75005C16.5 9.55114 16.421 9.36037 16.2803 9.21972C16.1397 9.07907 15.9489 9.00005 15.75 9.00005ZM3.75001 15.0001C3.55109 15.0001 3.36033 14.921 3.21968 14.7804C3.07902 14.6397 3.00001 14.449 3.00001 14.2501V3.54755L4.50001 4.40255C4.61576 4.46301 4.74441 4.49459 4.87501 4.49459C5.0056 4.49459 5.13425 4.46301 5.25001 4.40255L7.50001 3.11255L9.75 4.40255C9.86576 4.46301 9.99441 4.49459 10.125 4.49459C10.2556 4.49459 10.3843 4.46301 10.5 4.40255L12 3.54755V14.2501C12.002 14.5059 12.0477 14.7595 12.135 15.0001H3.75001ZM15 14.2501C15 14.449 14.921 14.6397 14.7803 14.7804C14.6397 14.921 14.4489 15.0001 14.25 15.0001C14.0511 15.0001 13.8603 14.921 13.7197 14.7804C13.579 14.6397 13.5 14.449 13.5 14.2501V10.5001H15V14.2501Z" fill="#DD4B18"/>
</svg>
