<svg width="18" height="18" viewBox="0 0 18 18" fill="none" xmlns="http://www.w3.org/2000/svg">
<path d="M11.3236 9.47534L9.75 8.56714V5.25C9.75 5.05109 9.67099 4.86032 9.53033 4.71967C9.38968 4.57902 9.19892 4.5 9 4.5C8.80109 4.5 8.61033 4.57902 8.46967 4.71967C8.32902 4.86032 8.25 5.05109 8.25 5.25V9C8.24997 9.13168 8.28461 9.26104 8.35044 9.37509C8.41626 9.48913 8.51096 9.58383 8.625 9.64966L10.5736 10.7747C10.6589 10.824 10.7531 10.856 10.8508 10.8689C10.9485 10.8818 11.0478 10.8753 11.143 10.8498C11.2382 10.8243 11.3274 10.7803 11.4056 10.7203C11.4837 10.6603 11.5493 10.5855 11.5986 10.5002C11.6479 10.4148 11.6798 10.3206 11.6927 10.2229C11.7055 10.1252 11.699 10.026 11.6734 9.93079C11.6479 9.83562 11.6039 9.74641 11.5438 9.66826C11.4838 9.59012 11.409 9.52456 11.3236 9.47534ZM9 1.5C7.51664 1.5 6.0666 1.93987 4.83323 2.76398C3.59986 3.58809 2.63856 4.75943 2.07091 6.12987C1.50325 7.50032 1.35472 9.00832 1.64411 10.4632C1.9335 11.918 2.64781 13.2544 3.6967 14.3033C4.7456 15.3522 6.08197 16.0665 7.53683 16.3559C8.99168 16.6453 10.4997 16.4968 11.8701 15.9291C13.2406 15.3614 14.4119 14.4001 15.236 13.1668C16.0601 11.9334 16.5 10.4834 16.5 9C16.4978 7.01156 15.7069 5.10519 14.3009 3.69914C12.8948 2.2931 10.9884 1.50221 9 1.5ZM9 15C7.81332 15 6.65328 14.6481 5.66658 13.9888C4.67989 13.3295 3.91085 12.3925 3.45673 11.2961C3.0026 10.1997 2.88378 8.99334 3.11529 7.82946C3.3468 6.66557 3.91825 5.59647 4.75736 4.75736C5.59648 3.91824 6.66558 3.3468 7.82946 3.11529C8.99335 2.88378 10.1997 3.0026 11.2961 3.45672C12.3925 3.91085 13.3295 4.67988 13.9888 5.66658C14.6481 6.65327 15 7.81331 15 9C14.9982 10.5907 14.3655 12.1158 13.2406 13.2406C12.1158 14.3655 10.5907 14.9982 9 15Z" fill="#424866"/>
</svg>
