<svg width="47" height="47" viewBox="0 0 47 47" fill="none" xmlns="http://www.w3.org/2000/svg">
<g filter="url(#filter0_d_81565_1938)">
<circle cx="23.5" cy="19.5" r="19.5" fill="white"/>
<path d="M20.3333 27.6C20.687 27.6 21.0261 27.4578 21.2761 27.2046C21.5262 26.9514 21.6667 26.608 21.6667 26.25V18.15C21.6667 17.792 21.5262 17.4486 21.2761 17.1954C21.0261 16.9422 20.687 16.8 20.3333 16.8C19.9797 16.8 19.6406 16.9422 19.3905 17.1954C19.1405 17.4486 19 17.792 19 18.15V26.25C19 26.608 19.1405 26.9514 19.3905 27.2046C19.6406 27.4578 19.9797 27.6 20.3333 27.6ZM33.6667 11.4H28.3333V10.05C28.3333 8.97587 27.9119 7.94574 27.1618 7.18622C26.4116 6.4267 25.3942 6 24.3333 6H21.6667C20.6058 6 19.5884 6.4267 18.8382 7.18622C18.0881 7.94574 17.6667 8.97587 17.6667 10.05V11.4H12.3333C11.9797 11.4 11.6406 11.5422 11.3905 11.7954C11.1405 12.0486 11 12.392 11 12.75C11 13.108 11.1405 13.4514 11.3905 13.7046C11.6406 13.9578 11.9797 14.1 12.3333 14.1H13.6667V28.95C13.6667 30.0241 14.0881 31.0543 14.8382 31.8138C15.5884 32.5733 16.6058 33 17.6667 33H28.3333C29.3942 33 30.4116 32.5733 31.1618 31.8138C31.9119 31.0543 32.3333 30.0241 32.3333 28.95V14.1H33.6667C34.0203 14.1 34.3594 13.9578 34.6095 13.7046C34.8595 13.4514 35 13.108 35 12.75C35 12.392 34.8595 12.0486 34.6095 11.7954C34.3594 11.5422 34.0203 11.4 33.6667 11.4ZM20.3333 10.05C20.3333 9.69196 20.4738 9.34858 20.7239 9.09541C20.9739 8.84223 21.313 8.7 21.6667 8.7H24.3333C24.687 8.7 25.0261 8.84223 25.2761 9.09541C25.5262 9.34858 25.6667 9.69196 25.6667 10.05V11.4H20.3333V10.05ZM29.6667 28.95C29.6667 29.308 29.5262 29.6514 29.2761 29.9046C29.0261 30.1578 28.687 30.3 28.3333 30.3H17.6667C17.313 30.3 16.9739 30.1578 16.7239 29.9046C16.4738 29.6514 16.3333 29.308 16.3333 28.95V14.1H29.6667V28.95ZM25.6667 27.6C26.0203 27.6 26.3594 27.4578 26.6095 27.2046C26.8595 26.9514 27 26.608 27 26.25V18.15C27 17.792 26.8595 17.4486 26.6095 17.1954C26.3594 16.9422 26.0203 16.8 25.6667 16.8C25.313 16.8 24.9739 16.9422 24.7239 17.1954C24.4738 17.4486 24.3333 17.792 24.3333 18.15V26.25C24.3333 26.608 24.4738 26.9514 24.7239 27.2046C24.9739 27.4578 25.313 27.6 25.6667 27.6Z" fill="#DB451B"/>
</g>
<defs>
<filter id="filter0_d_81565_1938" x="0" y="0" width="47" height="47" filterUnits="userSpaceOnUse" color-interpolation-filters="sRGB">
<feFlood flood-opacity="0" result="BackgroundImageFix"/>
<feColorMatrix in="SourceAlpha" type="matrix" values="0 0 0 0 0 0 0 0 0 0 0 0 0 0 0 0 0 0 127 0" result="hardAlpha"/>
<feOffset dy="4"/>
<feGaussianBlur stdDeviation="2"/>
<feComposite in2="hardAlpha" operator="out"/>
<feColorMatrix type="matrix" values="0 0 0 0 0 0 0 0 0 0 0 0 0 0 0 0 0 0 0.25 0"/>
<feBlend mode="normal" in2="BackgroundImageFix" result="effect1_dropShadow_81565_1938"/>
<feBlend mode="normal" in="SourceGraphic" in2="effect1_dropShadow_81565_1938" result="shape"/>
</filter>
</defs>
</svg>
