<svg width="21" height="20" viewBox="0 0 21 20" fill="none" xmlns="http://www.w3.org/2000/svg">
<path d="M2.87 2.77V4.52401L4.13814 3.31225C5.85236 1.67424 8.13011 0.757035 10.5011 0.75C12.3302 0.750212 14.1182 1.2927 15.639 2.30891C17.1602 3.32531 18.3458 4.76996 19.0459 6.46018C19.746 8.15039 19.9292 10.0103 19.5723 11.8046C19.2153 13.5989 18.3344 15.2471 17.0407 16.5407C15.7471 17.8344 14.0989 18.7153 12.3046 19.0723C10.5103 19.4292 8.65039 19.246 6.96018 18.5459C5.26996 17.8458 3.82531 16.6602 2.80891 15.139C1.7925 13.6179 1.25 11.8295 1.25 10C1.25 9.93369 1.27634 9.8701 1.32322 9.82322C1.37011 9.77634 1.4337 9.75 1.5 9.75C1.5663 9.75 1.62989 9.77634 1.67678 9.82322C1.72344 9.86988 1.74975 9.93309 1.75 9.99905C1.74257 12.0324 2.44355 14.0049 3.73253 15.5776C5.02192 17.1508 6.81913 18.2256 8.81514 18.6173C10.8112 19.0089 12.8813 18.693 14.6695 17.7237C16.4578 16.7544 17.8525 15.1923 18.6139 13.3061C19.3752 11.4199 19.4557 9.32735 18.8413 7.38827C18.2269 5.44918 16.9562 3.78471 15.2476 2.68105C13.539 1.57738 11.4992 1.10346 9.47902 1.34079C7.45884 1.57812 5.58445 2.51186 4.17813 3.98146L2.96422 5.25H4.72H7.12C7.1863 5.25 7.24989 5.27634 7.29677 5.32322C7.34366 5.37011 7.37 5.43369 7.37 5.5C7.37 5.5663 7.34366 5.62989 7.29677 5.67677C7.24989 5.72366 7.1863 5.75 7.12 5.75H2.62C2.5537 5.75 2.49011 5.72366 2.44322 5.67677C2.39634 5.62989 2.37 5.5663 2.37 5.5V1C2.37 0.933696 2.39634 0.870107 2.44322 0.823223C2.49011 0.776339 2.5537 0.75 2.62 0.75C2.6863 0.75 2.74989 0.776339 2.79678 0.823223C2.84366 0.870107 2.87 0.933695 2.87 1V2.77ZM10.75 9V9.75H11.5H12.5C12.5663 9.75 12.6299 9.77634 12.6768 9.82322C12.7237 9.8701 12.75 9.93369 12.75 10C12.75 10.0663 12.7237 10.1299 12.6768 10.1768C12.6299 10.2237 12.5663 10.25 12.5 10.25H10.5C10.4337 10.25 10.3701 10.2237 10.3232 10.1768C10.2763 10.1299 10.25 10.0663 10.25 10V7C10.25 6.93369 10.2763 6.87011 10.3232 6.82322C10.3701 6.77634 10.4337 6.75 10.5 6.75C10.5663 6.75 10.6299 6.77634 10.6768 6.82322C10.7237 6.87011 10.75 6.93369 10.75 7V9Z" fill="#5E5F60" stroke="#5E5F60" stroke-width="1.5"/>
</svg>
