<svg width="32" height="32" viewBox="0 0 32 32" fill="none" xmlns="http://www.w3.org/2000/svg">
<circle cx="16" cy="16" r="16" fill="#EA7305"/>
<path d="M8.37 8.77V10.524L9.63814 9.31225C11.3524 7.67424 13.6301 6.75704 16.0011 6.75C17.8302 6.75021 19.6182 7.2927 21.139 8.30891C22.6602 9.32531 23.8458 10.77 24.5459 12.4602C25.246 14.1504 25.4292 16.0103 25.0723 17.8046C24.7153 19.5989 23.8344 21.2471 22.5407 22.5407C21.2471 23.8344 19.5989 24.7153 17.8046 25.0723C16.0103 25.4292 14.1504 25.246 12.4602 24.5459C10.77 23.8458 9.32531 22.6602 8.30891 21.139C7.2925 19.6179 6.75 17.8295 6.75 16C6.75 15.9337 6.77634 15.8701 6.82322 15.8232C6.87011 15.7763 6.9337 15.75 7 15.75C7.0663 15.75 7.12989 15.7763 7.17678 15.8232C7.22344 15.8699 7.24975 15.9331 7.25 15.9991C7.24257 18.0324 7.94355 20.0049 9.23253 21.5776C10.5219 23.1508 12.3191 24.2256 14.3151 24.6173C16.3112 25.0089 18.3813 24.693 20.1695 23.7237C21.9578 22.7544 23.3525 21.1923 24.1139 19.3061C24.8752 17.4199 24.9556 15.3274 24.3413 13.3883C23.7269 11.4492 22.4562 9.78471 20.7476 8.68105C19.039 7.57738 16.9992 7.10346 14.979 7.34079C12.9588 7.57812 11.0844 8.51186 9.67813 9.98146L8.46422 11.25H10.22H12.62C12.6863 11.25 12.7499 11.2763 12.7968 11.3232C12.8437 11.3701 12.87 11.4337 12.87 11.5C12.87 11.5663 12.8437 11.6299 12.7968 11.6768C12.7499 11.7237 12.6863 11.75 12.62 11.75H8.12C8.0537 11.75 7.99011 11.7237 7.94322 11.6768C7.89634 11.6299 7.87 11.5663 7.87 11.5V7C7.87 6.9337 7.89634 6.87011 7.94322 6.82322C7.99011 6.77634 8.0537 6.75 8.12 6.75C8.1863 6.75 8.24989 6.77634 8.29678 6.82322C8.34366 6.87011 8.37 6.9337 8.37 7V8.77ZM16.25 15V15.75H17H18C18.0663 15.75 18.1299 15.7763 18.1768 15.8232C18.2237 15.8701 18.25 15.9337 18.25 16C18.25 16.0663 18.2237 16.1299 18.1768 16.1768C18.1299 16.2237 18.0663 16.25 18 16.25H16C15.9337 16.25 15.8701 16.2237 15.8232 16.1768C15.7763 16.1299 15.75 16.0663 15.75 16V13C15.75 12.9337 15.7763 12.8701 15.8232 12.8232C15.8701 12.7763 15.9337 12.75 16 12.75C16.0663 12.75 16.1299 12.7763 16.1768 12.8232C16.2237 12.8701 16.25 12.9337 16.25 13V15Z" fill="#5E5F60" stroke="white" stroke-width="1.5"/>
</svg>
