<svg width="20" height="20" viewBox="0 0 20 20" fill="none" xmlns="http://www.w3.org/2000/svg">
<path d="M18.8984 6.01673L12.5684 0.763019C11.9881 0.271652 11.2369 0 10.4584 0C9.6799 0 8.9287 0.271652 8.34843 0.763019L2.01847 6.01673C1.68337 6.30047 1.41597 6.64853 1.23405 7.03776C1.05214 7.42698 0.959905 7.84842 0.963479 8.27403V17.0036C0.963479 17.7983 1.29693 18.5604 1.89048 19.1224C2.48403 19.6843 3.28905 20 4.12846 20H16.7884C17.6278 20 18.4328 19.6843 19.0263 19.1224C19.6199 18.5604 19.9533 17.7983 19.9533 17.0036V8.26404C19.9554 7.84011 19.8625 7.42059 19.6806 7.0332C19.4987 6.6458 19.2321 6.29935 18.8984 6.01673ZM12.5684 18.0024H8.34843V13.0084C8.34843 12.7435 8.45958 12.4894 8.65743 12.3021C8.85528 12.1148 9.12362 12.0096 9.40342 12.0096H11.5134C11.7932 12.0096 12.0615 12.1148 12.2594 12.3021C12.4572 12.4894 12.5684 12.7435 12.5684 13.0084V18.0024ZM17.8434 17.0036C17.8434 17.2685 17.7322 17.5225 17.5344 17.7098C17.3365 17.8972 17.0682 18.0024 16.7884 18.0024H14.6784V13.0084C14.6784 12.2137 14.3449 11.4515 13.7514 10.8896C13.1578 10.3276 12.3528 10.012 11.5134 10.012H9.40342C8.56401 10.012 7.75899 10.3276 7.16544 10.8896C6.57189 11.4515 6.23844 12.2137 6.23844 13.0084V18.0024H4.12846C3.84866 18.0024 3.58031 17.8972 3.38246 17.7098C3.18462 17.5225 3.07346 17.2685 3.07346 17.0036V8.26404C3.07365 8.12223 3.10574 7.98208 3.16759 7.85291C3.22944 7.72375 3.31963 7.60854 3.43216 7.51494L9.76212 2.27121C9.95464 2.11109 10.2021 2.02278 10.4584 2.02278C10.7147 2.02278 10.9622 2.11109 11.1547 2.27121L17.4847 7.51494C17.5972 7.60854 17.6874 7.72375 17.7492 7.85291C17.8111 7.98208 17.8432 8.12223 17.8434 8.26404V17.0036Z" fill="#5E5F60"/>
</svg>
