<svg width="32" height="32" viewBox="0 0 32 32" fill="none" xmlns="http://www.w3.org/2000/svg">
<circle cx="16" cy="16" r="16" fill="#EA7305"/>
<path d="M24.935 11.0167L18.605 5.76302C18.0247 5.27165 17.2735 5 16.495 5C15.7165 5 14.9653 5.27165 14.385 5.76302L8.05509 11.0167C7.71999 11.3005 7.45259 11.6485 7.27068 12.0378C7.08877 12.427 6.99653 12.8484 7.0001 13.274V22.0036C7.0001 22.7983 7.33355 23.5604 7.9271 24.1224C8.52065 24.6843 9.32567 25 10.1651 25H22.825C23.6644 25 24.4694 24.6843 25.063 24.1224C25.6565 23.5604 25.99 22.7983 25.99 22.0036V13.264C25.992 12.8401 25.8991 12.4206 25.7172 12.0332C25.5354 11.6458 25.2687 11.2994 24.935 11.0167ZM18.605 23.0024H14.385V18.0084C14.385 17.7435 14.4962 17.4894 14.694 17.3021C14.8919 17.1148 15.1602 17.0096 15.44 17.0096H17.55C17.8298 17.0096 18.0982 17.1148 18.296 17.3021C18.4939 17.4894 18.605 17.7435 18.605 18.0084V23.0024ZM23.88 22.0036C23.88 22.2685 23.7688 22.5225 23.571 22.7098C23.3731 22.8972 23.1048 23.0024 22.825 23.0024H20.715V18.0084C20.715 17.2137 20.3816 16.4515 19.788 15.8896C19.1945 15.3276 18.3894 15.012 17.55 15.012H15.44C14.6006 15.012 13.7956 15.3276 13.2021 15.8896C12.6085 16.4515 12.2751 17.2137 12.2751 18.0084V23.0024H10.1651C9.88528 23.0024 9.61694 22.8972 9.41909 22.7098C9.22124 22.5225 9.11009 22.2685 9.11009 22.0036V13.264C9.11027 13.1222 9.14236 12.9821 9.20421 12.8529C9.26606 12.7238 9.35625 12.6085 9.46878 12.5149L15.7987 7.27121C15.9913 7.11109 16.2388 7.02278 16.495 7.02278C16.7513 7.02278 16.9988 7.11109 17.1913 7.27121L23.5213 12.5149C23.6338 12.6085 23.724 12.7238 23.7859 12.8529C23.8477 12.9821 23.8798 13.1222 23.88 13.264V22.0036Z" fill="white"/>
</svg>
