<svg width="48" height="67" viewBox="0 0 48 67" fill="none" xmlns="http://www.w3.org/2000/svg">
<g filter="url(#filter0_d_81565_1621)">
<path fill-rule="evenodd" clip-rule="evenodd" d="M39.5198 31.9539C41.7662 28.6556 43.0857 24.6309 43.0857 20.2867C43.0857 9.10031 34.3361 0.0319824 23.5429 0.0319824C12.7496 0.0319824 4 9.10031 4 20.2867C4 23.8648 4.8952 27.2262 6.46615 30.1434L6.42893 30.1432L23.5425 58.831L39.5198 31.9539Z" fill="url(#paint0_linear_81565_1621)"/>
</g>
<ellipse cx="23.4766" cy="19.3859" rx="12.5078" ry="12.9026" fill="white"/>
<path d="M19.0084 14.8009C19.0084 14.6481 19.0673 14.5016 19.172 14.3936C19.2767 14.2855 19.4187 14.2249 19.5668 14.2249H21.242C21.3901 14.2249 21.5321 14.2855 21.6368 14.3936C21.7415 14.5016 21.8004 14.6481 21.8004 14.8009C21.8004 14.9536 21.7415 15.1001 21.6368 15.2082C21.5321 15.3162 21.3901 15.3769 21.242 15.3769V15.9529H25.8654L26.2965 14.6188C26.3335 14.5042 26.4045 14.4045 26.4995 14.3337C26.5945 14.263 26.7087 14.2249 26.8258 14.2249H27.9426C28.0907 14.2249 28.2327 14.2855 28.3375 14.3936C28.4422 14.5016 28.501 14.6481 28.501 14.8009C28.501 14.9536 28.4422 15.1001 28.3375 15.2082C28.2327 15.3162 28.0907 15.3769 27.9426 15.3769H27.2279L26.8806 16.454L27.7818 17.9401C28.5584 17.6097 29.427 17.5924 30.2154 17.8914C31.0039 18.1905 31.6546 18.7842 32.0387 19.5549C32.4228 20.3256 32.5122 21.217 32.2892 22.0525C32.0663 22.888 31.5471 23.6066 30.8348 24.0659C30.1224 24.5251 29.2688 24.6916 28.443 24.5323C27.6173 24.3729 26.8797 23.8994 26.3765 23.2055C25.8733 22.5116 25.6411 21.6481 25.7259 20.7859C25.8108 19.9238 26.2066 19.126 26.8348 18.5507L26.2675 17.6152L23.949 21.4423C23.8988 21.5251 23.8291 21.5934 23.7462 21.6408C23.6634 21.6881 23.5702 21.713 23.4755 21.713H21.1962C21.0804 22.4194 20.7546 23.0712 20.2639 23.5783C19.7733 24.0853 19.142 24.4225 18.4574 24.5433C17.7728 24.664 17.0687 24.5623 16.4426 24.2522C15.8166 23.9421 15.2994 23.4389 14.9626 22.8123C14.6259 22.1857 14.4862 21.4666 14.563 20.7546C14.6398 20.0425 14.9292 19.3727 15.3912 18.8377C15.8532 18.3028 16.4649 17.9292 17.1418 17.7686C17.8186 17.6079 18.5271 17.6683 19.1693 17.9413L20.1252 16.363V15.3769H19.5668C19.4187 15.3769 19.2767 15.3162 19.172 15.2082C19.0673 15.1001 19.0084 14.9536 19.0084 14.8009ZM20.6836 17.6152L20.1163 18.553C20.6747 19.0645 21.0655 19.7672 21.1962 20.561H22.4682L20.6836 17.6152ZM23.4755 20.0506L25.2601 17.1049H21.6909L23.4755 20.0506ZM20.0549 20.561C19.9597 20.182 19.7725 19.8343 19.511 19.5506L18.899 20.561H20.0549ZM18.5651 18.9389C18.1391 18.8001 17.6825 18.7963 17.2543 18.928C16.8262 19.0597 16.4461 19.3208 16.1633 19.6776C15.8805 20.0344 15.708 20.4705 15.6679 20.9295C15.6279 21.3885 15.7222 21.8494 15.9387 22.2525C16.1552 22.6557 16.484 22.9826 16.8824 23.191C17.2809 23.3994 17.7308 23.4798 18.174 23.4217C18.6172 23.3636 19.0334 23.1697 19.3687 22.8651C19.704 22.5605 19.943 22.1592 20.0549 21.713H17.8917C17.792 21.713 17.6941 21.6855 17.6083 21.6333C17.5224 21.5811 17.4516 21.5061 17.4033 21.4162C17.355 21.3263 17.3309 21.2246 17.3335 21.1218C17.3361 21.0191 17.3653 20.9189 17.4182 20.8317L18.5651 18.9389ZM27.4401 19.5495C27.0657 19.9561 26.848 20.4897 26.8278 21.0501C26.8075 21.6105 26.9861 22.1593 27.33 22.5936C27.6739 23.0279 28.1596 23.3179 28.6959 23.4092C29.2323 23.5006 29.7825 23.387 30.2435 23.0898C30.7045 22.7926 31.0446 22.3321 31.2001 21.7948C31.3555 21.2574 31.3156 20.68 31.0879 20.1708C30.8601 19.6616 30.4602 19.2555 29.963 19.0287C29.4658 18.802 28.9055 18.77 28.3871 18.9389L29.5329 20.8317C29.5718 20.8958 29.598 20.9672 29.6101 21.0418C29.6222 21.1164 29.62 21.1928 29.6035 21.2665C29.587 21.3402 29.5566 21.4098 29.514 21.4714C29.4714 21.533 29.4175 21.5853 29.3553 21.6254C29.2931 21.6655 29.2239 21.6926 29.1516 21.7051C29.0793 21.7176 29.0053 21.7152 28.9338 21.6982C28.8624 21.6812 28.7949 21.6499 28.7352 21.6059C28.6755 21.562 28.6247 21.5064 28.5859 21.4423L27.4401 19.5495Z" fill="#0B1A3F"/>
<defs>
<filter id="filter0_d_81565_1621" x="0" y="0.0319824" width="47.0859" height="66.799" filterUnits="userSpaceOnUse" color-interpolation-filters="sRGB">
<feFlood flood-opacity="0" result="BackgroundImageFix"/>
<feColorMatrix in="SourceAlpha" type="matrix" values="0 0 0 0 0 0 0 0 0 0 0 0 0 0 0 0 0 0 127 0" result="hardAlpha"/>
<feOffset dy="4"/>
<feGaussianBlur stdDeviation="2"/>
<feComposite in2="hardAlpha" operator="out"/>
<feColorMatrix type="matrix" values="0 0 0 0 0 0 0 0 0 0 0 0 0 0 0 0 0 0 0.25 0"/>
<feBlend mode="normal" in2="BackgroundImageFix" result="effect1_dropShadow_81565_1621"/>
<feBlend mode="normal" in="SourceGraphic" in2="effect1_dropShadow_81565_1621" result="shape"/>
</filter>
<linearGradient id="paint0_linear_81565_1621" x1="23.5429" y1="0.0319824" x2="23.5429" y2="58.831" gradientUnits="userSpaceOnUse">
<stop stop-color="#EB7802"/>
<stop offset="1" stop-color="#DA421D"/>
</linearGradient>
</defs>
</svg>
