<svg width="20" height="20" viewBox="0 0 20 20" fill="none" xmlns="http://www.w3.org/2000/svg">
<path d="M8.88889 9.89948V14.9997C8.88889 15.265 9.00595 15.5193 9.21433 15.7069C9.4227 15.8944 9.70532 15.9998 10 15.9998C10.2947 15.9998 10.5773 15.8944 10.7857 15.7069C10.994 15.5193 11.1111 15.265 11.1111 14.9997V9.89948C12.46 9.65166 13.6587 8.96185 14.4747 7.9638C15.2906 6.96574 15.6658 5.73055 15.5274 4.49768C15.389 3.26482 14.747 2.12211 13.7257 1.29111C12.7045 0.460104 11.3768 0 10 0C8.62325 0 7.29554 0.460104 6.27427 1.29111C5.25301 2.12211 4.61095 3.26482 4.47258 4.49768C4.3342 5.73055 4.70937 6.96574 5.52534 7.9638C6.34131 8.96185 7.53995 9.65166 8.88889 9.89948ZM10 1.99908C10.6593 1.99908 11.3037 2.17504 11.8519 2.5047C12.4001 2.83436 12.8273 3.30292 13.0796 3.85113C13.3319 4.39933 13.3979 5.00256 13.2693 5.58454C13.1407 6.16651 12.8232 6.70108 12.357 7.12066C11.8908 7.54024 11.2969 7.82598 10.6503 7.94174C10.0037 8.0575 9.33348 7.99809 8.72439 7.77101C8.1153 7.54394 7.59471 7.1594 7.22844 6.66603C6.86216 6.17266 6.66667 5.59261 6.66667 4.99923C6.66667 4.20354 7.01786 3.44044 7.64298 2.87781C8.2681 2.31517 9.11595 1.99908 10 1.99908ZM14.6778 12.4196C14.5319 12.392 14.3813 12.3906 14.2348 12.4154C14.0883 12.4401 13.9486 12.4907 13.8238 12.564C13.6989 12.6374 13.5914 12.7322 13.5072 12.8429C13.4231 12.9537 13.364 13.0783 13.3333 13.2097C13.3027 13.341 13.3011 13.4765 13.3286 13.6083C13.3561 13.7402 13.4123 13.8659 13.4938 13.9783C13.5753 14.0907 13.6806 14.1875 13.8037 14.2632C13.9267 14.339 14.0652 14.3921 14.2111 14.4197C16.7333 14.8697 17.7778 15.6798 17.7778 15.9998C17.7778 16.5798 15.0556 17.9999 10 17.9999C4.94444 17.9999 2.22222 16.5798 2.22222 15.9998C2.22222 15.6798 3.26667 14.8697 5.78889 14.3797C5.9348 14.3521 6.07325 14.299 6.19633 14.2232C6.31941 14.1475 6.42471 14.0507 6.50622 13.9383C6.58773 13.8259 6.64385 13.7002 6.67138 13.5683C6.69891 13.4365 6.69731 13.301 6.66667 13.1697C6.63603 13.0383 6.57694 12.9137 6.4928 12.8029C6.40865 12.6922 6.30108 12.5974 6.17624 12.524C6.0514 12.4507 5.91172 12.4001 5.76519 12.3754C5.61866 12.3506 5.46814 12.352 5.32222 12.3796C1.94444 13.0796 0 14.3897 0 15.9998C0 18.6299 5.03333 20 10 20C14.9667 20 20 18.6299 20 15.9998C20 14.3897 18.0556 13.0796 14.6778 12.4196Z" fill="#5E5F60"/>
</svg>
