<svg width="64" height="61" viewBox="0 0 64 61" fill="none" xmlns="http://www.w3.org/2000/svg">
<circle cx="30.7085" cy="30.5" r="30.5" fill="white"/>
<circle cx="30.2085" cy="31" r="26" fill="url(#paint0_linear_81565_1586)"/>
<path d="M25.8309 43.1558H20.2032C19.8301 43.1558 19.4722 43.0135 19.2084 42.7602C18.9445 42.5069 18.7963 42.1634 18.7963 41.8052V36.4026C18.7963 36.0443 18.648 35.7008 18.3842 35.4475C18.1203 35.1942 17.7625 35.0519 17.3893 35.0519C17.0162 35.0519 16.6584 35.1942 16.3945 35.4475C16.1307 35.7008 15.9824 36.0443 15.9824 36.4026V41.8052C15.9824 42.8798 16.4271 43.9104 17.2187 44.6703C18.0102 45.4302 19.0838 45.8571 20.2032 45.8571H25.8309C26.204 45.8571 26.5619 45.7148 26.8258 45.4615C27.0896 45.2082 27.2378 44.8647 27.2378 44.5065C27.2378 44.1482 27.0896 43.8047 26.8258 43.5514C26.5619 43.2981 26.204 43.1558 25.8309 43.1558ZM45.5279 35.0519C45.1547 35.0519 44.7969 35.1942 44.533 35.4475C44.2692 35.7008 44.121 36.0443 44.121 36.4026V41.8052C44.121 42.1634 43.9727 42.5069 43.7089 42.7602C43.445 43.0135 43.0872 43.1558 42.714 43.1558H37.0863C36.7132 43.1558 36.3553 43.2981 36.0915 43.5514C35.8276 43.8047 35.6794 44.1482 35.6794 44.5065C35.6794 44.8647 35.8276 45.2082 36.0915 45.4615C36.3553 45.7148 36.7132 45.8571 37.0863 45.8571H42.714C43.8334 45.8571 44.907 45.4302 45.6986 44.6703C46.4901 43.9104 46.9348 42.8798 46.9348 41.8052V36.4026C46.9348 36.0443 46.7866 35.7008 46.5227 35.4475C46.2589 35.1942 45.901 35.0519 45.5279 35.0519ZM42.714 16.1428H37.0863C36.7132 16.1428 36.3553 16.2851 36.0915 16.5384C35.8276 16.7917 35.6794 17.1353 35.6794 17.4935C35.6794 17.8517 35.8276 18.1952 36.0915 18.4485C36.3553 18.7018 36.7132 18.8441 37.0863 18.8441H42.714C43.0872 18.8441 43.445 18.9864 43.7089 19.2397C43.9727 19.493 44.121 19.8366 44.121 20.1948V25.5974C44.121 25.9556 44.2692 26.2991 44.533 26.5524C44.7969 26.8057 45.1547 26.948 45.5279 26.948C45.901 26.948 46.2589 26.8057 46.5227 26.5524C46.7866 26.2991 46.9348 25.9556 46.9348 25.5974V20.1948C46.9348 19.1201 46.4901 18.0895 45.6986 17.3296C44.907 16.5697 43.8334 16.1428 42.714 16.1428ZM17.3893 26.948C17.7625 26.948 18.1203 26.8057 18.3842 26.5524C18.648 26.2991 18.7963 25.9556 18.7963 25.5974V20.1948C18.7963 19.8366 18.9445 19.493 19.2084 19.2397C19.4722 18.9864 19.8301 18.8441 20.2032 18.8441H25.8309C26.204 18.8441 26.5619 18.7018 26.8258 18.4485C27.0896 18.1952 27.2378 17.8517 27.2378 17.4935C27.2378 17.1353 27.0896 16.7917 26.8258 16.5384C26.5619 16.2851 26.204 16.1428 25.8309 16.1428H20.2032C19.0838 16.1428 18.0102 16.5697 17.2187 17.3296C16.4271 18.0895 15.9824 19.1201 15.9824 20.1948V25.5974C15.9824 25.9556 16.1307 26.2991 16.3945 26.5524C16.6584 26.8057 17.0162 26.948 17.3893 26.948ZM28.6448 21.5454H23.0171C22.6439 21.5454 22.2861 21.6877 22.0222 21.941C21.7584 22.1943 21.6101 22.5379 21.6101 22.8961V28.2987C21.6101 28.6569 21.7584 29.0004 22.0222 29.2537C22.2861 29.507 22.6439 29.6493 23.0171 29.6493H28.6448C29.0179 29.6493 29.3758 29.507 29.6396 29.2537C29.9035 29.0004 30.0517 28.6569 30.0517 28.2987V22.8961C30.0517 22.5379 29.9035 22.1943 29.6396 21.941C29.3758 21.6877 29.0179 21.5454 28.6448 21.5454ZM27.2378 26.948H24.424V24.2467H27.2378V26.948ZM34.2725 29.6493H39.9002C40.2733 29.6493 40.6312 29.507 40.895 29.2537C41.1589 29.0004 41.3071 28.6569 41.3071 28.2987V22.8961C41.3071 22.5379 41.1589 22.1943 40.895 21.941C40.6312 21.6877 40.2733 21.5454 39.9002 21.5454H34.2725C33.8993 21.5454 33.5415 21.6877 33.2776 21.941C33.0138 22.1943 32.8655 22.5379 32.8655 22.8961V28.2987C32.8655 28.6569 33.0138 29.0004 33.2776 29.2537C33.5415 29.507 33.8993 29.6493 34.2725 29.6493ZM35.6794 24.2467H38.4932V26.948H35.6794V24.2467ZM28.6448 32.3506H23.0171C22.6439 32.3506 22.2861 32.4929 22.0222 32.7462C21.7584 32.9995 21.6101 33.3431 21.6101 33.7013V39.1039C21.6101 39.4621 21.7584 39.8056 22.0222 40.0589C22.2861 40.3122 22.6439 40.4545 23.0171 40.4545H28.6448C29.0179 40.4545 29.3758 40.3122 29.6396 40.0589C29.9035 39.8056 30.0517 39.4621 30.0517 39.1039V33.7013C30.0517 33.3431 29.9035 32.9995 29.6396 32.7462C29.3758 32.4929 29.0179 32.3506 28.6448 32.3506ZM27.2378 37.7532H24.424V35.0519H27.2378V37.7532ZM34.2725 36.4026C34.6456 36.4026 35.0035 36.2603 35.2673 36.007C35.5312 35.7537 35.6794 35.4101 35.6794 35.0519C36.0525 35.0519 36.4104 34.9096 36.6742 34.6563C36.9381 34.403 37.0863 34.0595 37.0863 33.7013C37.0863 33.3431 36.9381 32.9995 36.6742 32.7462C36.4104 32.4929 36.0525 32.3506 35.6794 32.3506H34.2725C33.8993 32.3506 33.5415 32.4929 33.2776 32.7462C33.0138 32.9995 32.8655 33.3431 32.8655 33.7013V35.0519C32.8655 35.4101 33.0138 35.7537 33.2776 36.007C33.5415 36.2603 33.8993 36.4026 34.2725 36.4026ZM39.9002 32.3506C39.527 32.3506 39.1692 32.4929 38.9053 32.7462C38.6415 32.9995 38.4932 33.3431 38.4932 33.7013V37.7532C38.1201 37.7532 37.7622 37.8955 37.4984 38.1488C37.2345 38.4021 37.0863 38.7456 37.0863 39.1039C37.0863 39.4621 37.2345 39.8056 37.4984 40.0589C37.7622 40.3122 38.1201 40.4545 38.4932 40.4545H39.9002C40.2733 40.4545 40.6312 40.3122 40.895 40.0589C41.1589 39.8056 41.3071 39.4621 41.3071 39.1039V33.7013C41.3071 33.3431 41.1589 32.9995 40.895 32.7462C40.6312 32.4929 40.2733 32.3506 39.9002 32.3506ZM34.2725 37.7532C33.9942 37.7532 33.7222 37.8324 33.4908 37.9808C33.2595 38.1292 33.0791 38.3402 32.9726 38.587C32.8661 38.8338 32.8383 39.1054 32.8926 39.3674C32.9469 39.6294 33.0809 39.87 33.2776 40.0589C33.4744 40.2478 33.7251 40.3764 33.998 40.4286C34.2709 40.4807 34.5538 40.4539 34.8109 40.3517C35.068 40.2495 35.2877 40.0764 35.4423 39.8542C35.5969 39.6321 35.6794 39.371 35.6794 39.1039C35.6794 38.7456 35.5312 38.4021 35.2673 38.1488C35.0035 37.8955 34.6456 37.7532 34.2725 37.7532Z" fill="white"/>
<defs>
<linearGradient id="paint0_linear_81565_1586" x1="30.2085" y1="5" x2="30.2085" y2="57" gradientUnits="userSpaceOnUse">
<stop stop-color="#EA7404"/>
<stop offset="1" stop-color="#DB441B"/>
</linearGradient>
</defs>
</svg>
