<svg width="72" height="72" viewBox="0 0 72 72" fill="none" xmlns="http://www.w3.org/2000/svg">
<g filter="url(#filter0_d_81563_1491)">
<circle cx="36" cy="32" r="32" fill="url(#paint0_linear_81563_1491)"/>
</g>
<path d="M36 16C32.8355 16 29.7421 16.9384 27.1109 18.6965C24.4797 20.4546 22.4289 22.9534 21.2179 25.8771C20.0069 28.8007 19.6901 32.0177 20.3074 35.1214C20.9248 38.2251 22.4487 41.0761 24.6863 43.3137C26.9239 45.5513 29.7749 47.0752 32.8786 47.6926C35.9823 48.3099 39.1993 47.9931 42.1229 46.7821C45.0466 45.5711 47.5454 43.5203 49.3035 40.8891C51.0616 38.2579 52 35.1645 52 32C52 29.8988 51.5861 27.8183 50.7821 25.8771C49.978 23.9359 48.7994 22.172 47.3137 20.6863C45.828 19.2006 44.0641 18.022 42.1229 17.2179C40.1817 16.4139 38.1012 16 36 16ZM36 44.8C33.4684 44.8 30.9937 44.0493 28.8887 42.6428C26.7838 41.2363 25.1432 39.2372 24.1743 36.8983C23.2055 34.5594 22.9521 31.9858 23.446 29.5028C23.9398 27.0199 25.1589 24.7391 26.949 22.949C28.7392 21.1589 31.0199 19.9398 33.5028 19.4459C35.9858 18.9521 38.5595 19.2055 40.8984 20.1743C43.2372 21.1431 45.2363 22.7837 46.6428 24.8887C48.0493 26.9936 48.8 29.4684 48.8 32C48.8 35.3948 47.4514 38.6505 45.051 41.051C42.6505 43.4514 39.3948 44.8 36 44.8ZM42.4 30.4H37.6V25.6C37.6 25.1757 37.4314 24.7687 37.1314 24.4686C36.8313 24.1686 36.4244 24 36 24C35.5757 24 35.1687 24.1686 34.8686 24.4686C34.5686 24.7687 34.4 25.1757 34.4 25.6V30.4H29.6C29.1757 30.4 28.7687 30.5686 28.4686 30.8686C28.1686 31.1687 28 31.5756 28 32C28 32.4243 28.1686 32.8313 28.4686 33.1314C28.7687 33.4314 29.1757 33.6 29.6 33.6H34.4V38.4C34.4 38.8243 34.5686 39.2313 34.8686 39.5314C35.1687 39.8314 35.5757 40 36 40C36.4244 40 36.8313 39.8314 37.1314 39.5314C37.4314 39.2313 37.6 38.8243 37.6 38.4V33.6H42.4C42.8243 33.6 43.2313 33.4314 43.5314 33.1314C43.8314 32.8313 44 32.4243 44 32C44 31.5756 43.8314 31.1687 43.5314 30.8686C43.2313 30.5686 42.8243 30.4 42.4 30.4Z" fill="white"/>
<defs>
<filter id="filter0_d_81563_1491" x="0" y="0" width="72" height="72" filterUnits="userSpaceOnUse" color-interpolation-filters="sRGB">
<feFlood flood-opacity="0" result="BackgroundImageFix"/>
<feColorMatrix in="SourceAlpha" type="matrix" values="0 0 0 0 0 0 0 0 0 0 0 0 0 0 0 0 0 0 127 0" result="hardAlpha"/>
<feOffset dy="4"/>
<feGaussianBlur stdDeviation="2"/>
<feComposite in2="hardAlpha" operator="out"/>
<feColorMatrix type="matrix" values="0 0 0 0 0 0 0 0 0 0 0 0 0 0 0 0 0 0 0.25 0"/>
<feBlend mode="normal" in2="BackgroundImageFix" result="effect1_dropShadow_81563_1491"/>
<feBlend mode="normal" in="SourceGraphic" in2="effect1_dropShadow_81563_1491" result="shape"/>
</filter>
<linearGradient id="paint0_linear_81563_1491" x1="36" y1="0" x2="36" y2="64" gradientUnits="userSpaceOnUse">
<stop stop-color="#EB7703"/>
<stop offset="1" stop-color="#DD4C18"/>
</linearGradient>
</defs>
</svg>
