<svg width="291" height="111" viewBox="0 0 291 111" fill="none" xmlns="http://www.w3.org/2000/svg">
<g filter="url(#filter0_d_81566_3102)">
<path d="M57.1407 37.64C59.2147 38.082 60.8807 39.119 62.1387 40.751C63.3967 42.349 64.0257 44.185 64.0257 46.259C64.0257 49.251 62.9717 51.631 60.8637 53.399C58.7897 55.133 55.8827 56 52.1427 56H35.4657V20.198H51.5817C55.2197 20.198 58.0587 21.031 60.0987 22.697C62.1727 24.363 63.2097 26.624 63.2097 29.48C63.2097 31.588 62.6487 33.339 61.5267 34.733C60.4387 36.127 58.9767 37.096 57.1407 37.64ZM44.1867 34.682H49.8987C51.3267 34.682 52.4147 34.376 53.1627 33.764C53.9447 33.118 54.3357 32.183 54.3357 30.959C54.3357 29.735 53.9447 28.8 53.1627 28.154C52.4147 27.508 51.3267 27.185 49.8987 27.185H44.1867V34.682ZM50.6127 48.962C52.0747 48.962 53.1967 48.639 53.9787 47.993C54.7947 47.313 55.2027 46.344 55.2027 45.086C55.2027 43.828 54.7777 42.842 53.9277 42.128C53.1117 41.414 51.9727 41.057 50.5107 41.057H44.1867V48.962H50.6127ZM73.4699 24.584C71.9399 24.584 70.6819 24.142 69.6959 23.258C68.7439 22.34 68.2679 21.218 68.2679 19.892C68.2679 18.532 68.7439 17.41 69.6959 16.526C70.6819 15.608 71.9399 15.149 73.4699 15.149C74.9659 15.149 76.1899 15.608 77.1419 16.526C78.1279 17.41 78.6209 18.532 78.6209 19.892C78.6209 21.218 78.1279 22.34 77.1419 23.258C76.1899 24.142 74.9659 24.584 73.4699 24.584ZM77.8049 27.542V56H69.0839V27.542H77.8049ZM101.516 56L92.8459 44.066V56H84.1249V18.26H92.8459V39.119L101.465 27.542H112.226L100.394 41.822L112.328 56H101.516ZM142.477 41.312C142.477 42.128 142.426 42.978 142.324 43.862H122.587C122.723 45.63 123.284 46.99 124.27 47.942C125.29 48.86 126.531 49.319 127.993 49.319C130.169 49.319 131.682 48.401 132.532 46.565H141.814C141.338 48.435 140.471 50.118 139.213 51.614C137.989 53.11 136.442 54.283 134.572 55.133C132.702 55.983 130.611 56.408 128.299 56.408C125.511 56.408 123.029 55.813 120.853 54.623C118.677 53.433 116.977 51.733 115.753 49.523C114.529 47.313 113.917 44.729 113.917 41.771C113.917 38.813 114.512 36.229 115.702 34.019C116.926 31.809 118.626 30.109 120.802 28.919C122.978 27.729 125.477 27.134 128.299 27.134C131.053 27.134 133.501 27.712 135.643 28.868C137.785 30.024 139.451 31.673 140.641 33.815C141.865 35.957 142.477 38.456 142.477 41.312ZM133.552 39.017C133.552 37.521 133.042 36.331 132.022 35.447C131.002 34.563 129.727 34.121 128.197 34.121C126.735 34.121 125.494 34.546 124.474 35.396C123.488 36.246 122.876 37.453 122.638 39.017H133.552ZM165.336 56L157.89 42.485H155.799V56H147.078V20.198H161.715C164.537 20.198 166.934 20.691 168.906 21.677C170.912 22.663 172.408 24.023 173.394 25.757C174.38 27.457 174.873 29.361 174.873 31.469C174.873 33.849 174.193 35.974 172.833 37.844C171.507 39.714 169.535 41.04 166.917 41.822L175.179 56H165.336ZM155.799 36.314H161.205C162.803 36.314 163.993 35.923 164.775 35.141C165.591 34.359 165.999 33.254 165.999 31.826C165.999 30.466 165.591 29.395 164.775 28.613C163.993 27.831 162.803 27.44 161.205 27.44H155.799V36.314ZM207.174 41.312C207.174 42.128 207.123 42.978 207.021 43.862H187.284C187.42 45.63 187.981 46.99 188.967 47.942C189.987 48.86 191.228 49.319 192.69 49.319C194.866 49.319 196.379 48.401 197.229 46.565H206.511C206.035 48.435 205.168 50.118 203.91 51.614C202.686 53.11 201.139 54.283 199.269 55.133C197.399 55.983 195.308 56.408 192.996 56.408C190.208 56.408 187.726 55.813 185.55 54.623C183.374 53.433 181.674 51.733 180.45 49.523C179.226 47.313 178.614 44.729 178.614 41.771C178.614 38.813 179.209 36.229 180.399 34.019C181.623 31.809 183.323 30.109 185.499 28.919C187.675 27.729 190.174 27.134 192.996 27.134C195.75 27.134 198.198 27.712 200.34 28.868C202.482 30.024 204.148 31.673 205.338 33.815C206.562 35.957 207.174 38.456 207.174 41.312ZM198.249 39.017C198.249 37.521 197.739 36.331 196.719 35.447C195.699 34.563 194.424 34.121 192.894 34.121C191.432 34.121 190.191 34.546 189.171 35.396C188.185 36.246 187.573 37.453 187.335 39.017H198.249ZM229.114 27.236C232.446 27.236 235.098 28.324 237.07 30.5C239.076 32.642 240.079 35.6 240.079 39.374V56H231.409V40.547C231.409 38.643 230.916 37.164 229.93 36.11C228.944 35.056 227.618 34.529 225.952 34.529C224.286 34.529 222.96 35.056 221.974 36.11C220.988 37.164 220.495 38.643 220.495 40.547V56H211.774V27.542H220.495V31.316C221.379 30.058 222.569 29.072 224.065 28.358C225.561 27.61 227.244 27.236 229.114 27.236ZM262.001 48.605V56H257.564C254.402 56 251.937 55.235 250.169 53.705C248.401 52.141 247.517 49.608 247.517 46.106V34.784H244.049V27.542H247.517V20.606H256.238V27.542H261.95V34.784H256.238V46.208C256.238 47.058 256.442 47.67 256.85 48.044C257.258 48.418 257.938 48.605 258.89 48.605H262.001Z" fill="url(#paint0_linear_81566_3102)"/>
</g>
<g filter="url(#filter1_d_81566_3102)">
<path d="M16.583 94L11.271 84.88H7.751V94H4.839V71.696H12.039C13.7243 71.696 15.143 71.984 16.295 72.56C17.4683 73.136 18.343 73.9147 18.919 74.896C19.495 75.8773 19.783 76.9973 19.783 78.256C19.783 79.792 19.335 81.1467 18.439 82.32C17.5643 83.4933 16.2417 84.272 14.471 84.656L20.071 94H16.583ZM7.751 82.544H12.039C13.6177 82.544 14.8017 82.16 15.591 81.392C16.3803 80.6027 16.775 79.5573 16.775 78.256C16.775 76.9333 16.3803 75.9093 15.591 75.184C14.823 74.4587 13.639 74.096 12.039 74.096H7.751V82.544ZM40.3078 84.56C40.3078 85.1147 40.2758 85.7013 40.2118 86.32H26.1958C26.3024 88.048 26.8891 89.4027 27.9558 90.384C29.0438 91.344 30.3558 91.824 31.8918 91.824C33.1504 91.824 34.1958 91.536 35.0278 90.96C35.8811 90.3627 36.4784 89.5733 36.8198 88.592H39.9558C39.4864 90.2773 38.5478 91.6533 37.1398 92.72C35.7318 93.7653 33.9824 94.288 31.8918 94.288C30.2278 94.288 28.7344 93.9147 27.4118 93.168C26.1104 92.4213 25.0864 91.3653 24.3398 90C23.5931 88.6133 23.2198 87.0133 23.2198 85.2C23.2198 83.3867 23.5824 81.7973 24.3078 80.432C25.0331 79.0667 26.0464 78.0213 27.3478 77.296C28.6704 76.5493 30.1851 76.176 31.8918 76.176C33.5558 76.176 35.0278 76.5387 36.3078 77.264C37.5878 77.9893 38.5691 78.992 39.2518 80.272C39.9558 81.5307 40.3078 82.96 40.3078 84.56ZM37.2998 83.952C37.2998 82.8427 37.0544 81.8933 36.5638 81.104C36.0731 80.2933 35.4011 79.6853 34.5478 79.28C33.7158 78.8533 32.7878 78.64 31.7638 78.64C30.2918 78.64 29.0331 79.1093 27.9878 80.048C26.9638 80.9867 26.3771 82.288 26.2278 83.952H37.2998ZM52.6955 76.144C54.8288 76.144 56.5568 76.7947 57.8795 78.096C59.2022 79.376 59.8635 81.232 59.8635 83.664V94H56.9835V84.08C56.9835 82.3307 56.5462 80.9973 55.6715 80.08C54.7968 79.1413 53.6022 78.672 52.0875 78.672C50.5515 78.672 49.3248 79.152 48.4075 80.112C47.5115 81.072 47.0635 82.4693 47.0635 84.304V94H44.1515V76.464H47.0635V78.96C47.6395 78.064 48.4182 77.3707 49.3995 76.88C50.4022 76.3893 51.5008 76.144 52.6955 76.144ZM68.1723 78.864V89.2C68.1723 90.0533 68.3536 90.6613 68.7163 91.024C69.0789 91.3653 69.7083 91.536 70.6042 91.536H72.7483V94H70.1243C68.5029 94 67.2869 93.6267 66.4763 92.88C65.6656 92.1333 65.2603 90.9067 65.2603 89.2V78.864H62.9883V76.464H65.2603V72.048H68.1723V76.464H72.7483V78.864H68.1723ZM75.1885 85.168C75.1885 83.376 75.5512 81.808 76.2765 80.464C77.0018 79.0987 77.9938 78.0427 79.2525 77.296C80.5325 76.5493 81.9512 76.176 83.5085 76.176C85.0445 76.176 86.3778 76.5067 87.5085 77.168C88.6392 77.8293 89.4818 78.6613 90.0365 79.664V76.464H92.9805V94H90.0365V90.736C89.4605 91.76 88.5965 92.6133 87.4445 93.296C86.3138 93.9573 84.9912 94.288 83.4765 94.288C81.9192 94.288 80.5112 93.904 79.2525 93.136C77.9938 92.368 77.0018 91.2907 76.2765 89.904C75.5512 88.5173 75.1885 86.9387 75.1885 85.168ZM90.0365 85.2C90.0365 83.8773 89.7698 82.7253 89.2365 81.744C88.7032 80.7627 87.9778 80.016 87.0605 79.504C86.1645 78.9707 85.1725 78.704 84.0845 78.704C82.9965 78.704 82.0045 78.96 81.1085 79.472C80.2125 79.984 79.4978 80.7307 78.9645 81.712C78.4312 82.6933 78.1645 83.8453 78.1645 85.168C78.1645 86.512 78.4312 87.6853 78.9645 88.688C79.4978 89.6693 80.2125 90.4267 81.1085 90.96C82.0045 91.472 82.9965 91.728 84.0845 91.728C85.1725 91.728 86.1645 91.472 87.0605 90.96C87.9778 90.4267 88.7032 89.6693 89.2365 88.688C89.7698 87.6853 90.0365 86.5227 90.0365 85.2ZM100.814 70.32V94H97.9015V70.32H100.814ZM121.38 94.224C119.908 94.224 118.585 93.968 117.412 93.456C116.26 92.9227 115.353 92.1973 114.692 91.28C114.03 90.3413 113.689 89.264 113.668 88.048H116.772C116.878 89.0933 117.305 89.9787 118.052 90.704C118.82 91.408 119.929 91.76 121.38 91.76C122.766 91.76 123.854 91.4187 124.644 90.736C125.454 90.032 125.86 89.136 125.86 88.048C125.86 87.1947 125.625 86.5013 125.156 85.968C124.686 85.4347 124.1 85.0293 123.396 84.752C122.692 84.4747 121.742 84.176 120.548 83.856C119.076 83.472 117.892 83.088 116.996 82.704C116.121 82.32 115.364 81.7227 114.724 80.912C114.105 80.08 113.796 78.9707 113.796 77.584C113.796 76.368 114.105 75.2907 114.724 74.352C115.342 73.4133 116.206 72.688 117.316 72.176C118.446 71.664 119.737 71.408 121.188 71.408C123.278 71.408 124.985 71.9307 126.308 72.976C127.652 74.0213 128.409 75.408 128.58 77.136H125.38C125.273 76.2827 124.825 75.536 124.036 74.896C123.246 74.2347 122.201 73.904 120.9 73.904C119.684 73.904 118.692 74.224 117.924 74.864C117.156 75.4827 116.772 76.3573 116.772 77.488C116.772 78.2987 116.996 78.96 117.444 79.472C117.913 79.984 118.478 80.3787 119.14 80.656C119.822 80.912 120.772 81.2107 121.988 81.552C123.46 81.9573 124.644 82.3627 125.54 82.768C126.436 83.152 127.204 83.76 127.844 84.592C128.484 85.4027 128.804 86.512 128.804 87.92C128.804 89.008 128.516 90.032 127.94 90.992C127.364 91.952 126.51 92.7307 125.38 93.328C124.249 93.9253 122.916 94.224 121.38 94.224ZM149.089 84.56C149.089 85.1147 149.057 85.7013 148.993 86.32H134.977C135.084 88.048 135.67 89.4027 136.737 90.384C137.825 91.344 139.137 91.824 140.673 91.824C141.932 91.824 142.977 91.536 143.809 90.96C144.662 90.3627 145.26 89.5733 145.601 88.592H148.737C148.268 90.2773 147.329 91.6533 145.921 92.72C144.513 93.7653 142.764 94.288 140.673 94.288C139.009 94.288 137.516 93.9147 136.193 93.168C134.892 92.4213 133.868 91.3653 133.121 90C132.374 88.6133 132.001 87.0133 132.001 85.2C132.001 83.3867 132.364 81.7973 133.089 80.432C133.814 79.0667 134.828 78.0213 136.129 77.296C137.452 76.5493 138.966 76.176 140.673 76.176C142.337 76.176 143.809 76.5387 145.089 77.264C146.369 77.9893 147.35 78.992 148.033 80.272C148.737 81.5307 149.089 82.96 149.089 84.56ZM146.081 83.952C146.081 82.8427 145.836 81.8933 145.345 81.104C144.854 80.2933 144.182 79.6853 143.329 79.28C142.497 78.8533 141.569 78.64 140.545 78.64C139.073 78.64 137.814 79.1093 136.769 80.048C135.745 80.9867 135.158 82.288 135.009 83.952H146.081ZM155.845 79.696C156.421 78.6933 157.274 77.8613 158.405 77.2C159.557 76.5173 160.89 76.176 162.405 76.176C163.962 76.176 165.37 76.5493 166.629 77.296C167.909 78.0427 168.911 79.0987 169.637 80.464C170.362 81.808 170.725 83.376 170.725 85.168C170.725 86.9387 170.362 88.5173 169.637 89.904C168.911 91.2907 167.909 92.368 166.629 93.136C165.37 93.904 163.962 94.288 162.405 94.288C160.911 94.288 159.589 93.9573 158.437 93.296C157.306 92.6133 156.442 91.7707 155.845 90.768V102.32H152.933V76.464H155.845V79.696ZM167.749 85.168C167.749 83.8453 167.482 82.6933 166.949 81.712C166.415 80.7307 165.69 79.984 164.773 79.472C163.877 78.96 162.885 78.704 161.797 78.704C160.73 78.704 159.738 78.9707 158.821 79.504C157.925 80.016 157.199 80.7733 156.645 81.776C156.111 82.7573 155.845 83.8987 155.845 85.2C155.845 86.5227 156.111 87.6853 156.645 88.688C157.199 89.6693 157.925 90.4267 158.821 90.96C159.738 91.472 160.73 91.728 161.797 91.728C162.885 91.728 163.877 91.472 164.773 90.96C165.69 90.4267 166.415 89.6693 166.949 88.688C167.482 87.6853 167.749 86.512 167.749 85.168ZM190.558 84.56C190.558 85.1147 190.526 85.7013 190.462 86.32H176.446C176.552 88.048 177.139 89.4027 178.206 90.384C179.294 91.344 180.606 91.824 182.142 91.824C183.4 91.824 184.446 91.536 185.278 90.96C186.131 90.3627 186.728 89.5733 187.07 88.592H190.206C189.736 90.2773 188.798 91.6533 187.39 92.72C185.982 93.7653 184.232 94.288 182.142 94.288C180.478 94.288 178.984 93.9147 177.662 93.168C176.36 92.4213 175.336 91.3653 174.59 90C173.843 88.6133 173.47 87.0133 173.47 85.2C173.47 83.3867 173.832 81.7973 174.558 80.432C175.283 79.0667 176.296 78.0213 177.598 77.296C178.92 76.5493 180.435 76.176 182.142 76.176C183.806 76.176 185.278 76.5387 186.558 77.264C187.838 77.9893 188.819 78.992 189.502 80.272C190.206 81.5307 190.558 82.96 190.558 84.56ZM187.55 83.952C187.55 82.8427 187.304 81.8933 186.814 81.104C186.323 80.2933 185.651 79.6853 184.798 79.28C183.966 78.8533 183.038 78.64 182.014 78.64C180.542 78.64 179.283 79.1093 178.238 80.048C177.214 80.9867 176.627 82.288 176.478 83.952H187.55ZM193.314 85.168C193.314 83.376 193.676 81.808 194.402 80.464C195.127 79.0987 196.119 78.0427 197.378 77.296C198.658 76.5493 200.087 76.176 201.666 76.176C203.031 76.176 204.3 76.496 205.474 77.136C206.647 77.7547 207.543 78.576 208.162 79.6V70.32H211.106V94H208.162V90.704C207.586 91.7493 206.732 92.6133 205.602 93.296C204.471 93.9573 203.148 94.288 201.634 94.288C200.076 94.288 198.658 93.904 197.378 93.136C196.119 92.368 195.127 91.2907 194.402 89.904C193.676 88.5173 193.314 86.9387 193.314 85.168ZM208.162 85.2C208.162 83.8773 207.895 82.7253 207.362 81.744C206.828 80.7627 206.103 80.016 205.186 79.504C204.29 78.9707 203.298 78.704 202.21 78.704C201.122 78.704 200.13 78.96 199.234 79.472C198.338 79.984 197.623 80.7307 197.09 81.712C196.556 82.6933 196.29 83.8453 196.29 85.168C196.29 86.512 196.556 87.6853 197.09 88.688C197.623 89.6693 198.338 90.4267 199.234 90.96C200.13 91.472 201.122 91.728 202.21 91.728C203.298 91.728 204.29 91.472 205.186 90.96C206.103 90.4267 206.828 89.6693 207.362 88.688C207.895 87.6853 208.162 86.5227 208.162 85.2ZM214.939 85.168C214.939 83.376 215.301 81.808 216.027 80.464C216.752 79.0987 217.744 78.0427 219.003 77.296C220.283 76.5493 221.701 76.176 223.259 76.176C224.795 76.176 226.128 76.5067 227.259 77.168C228.389 77.8293 229.232 78.6613 229.787 79.664V76.464H232.731V94H229.787V90.736C229.211 91.76 228.347 92.6133 227.195 93.296C226.064 93.9573 224.741 94.288 223.227 94.288C221.669 94.288 220.261 93.904 219.003 93.136C217.744 92.368 216.752 91.2907 216.027 89.904C215.301 88.5173 214.939 86.9387 214.939 85.168ZM229.787 85.2C229.787 83.8773 229.52 82.7253 228.987 81.744C228.453 80.7627 227.728 80.016 226.811 79.504C225.915 78.9707 224.923 78.704 223.835 78.704C222.747 78.704 221.755 78.96 220.859 79.472C219.963 79.984 219.248 80.7307 218.715 81.712C218.181 82.6933 217.915 83.8453 217.915 85.168C217.915 86.512 218.181 87.6853 218.715 88.688C219.248 89.6693 219.963 90.4267 220.859 90.96C221.755 91.472 222.747 91.728 223.835 91.728C224.923 91.728 225.915 91.472 226.811 90.96C227.728 90.4267 228.453 89.6693 228.987 88.688C229.52 87.6853 229.787 86.5227 229.787 85.2ZM258.74 76.144C260.105 76.144 261.321 76.432 262.388 77.008C263.454 77.5627 264.297 78.4053 264.916 79.536C265.534 80.6667 265.844 82.0427 265.844 83.664V94H262.964V84.08C262.964 82.3307 262.526 80.9973 261.652 80.08C260.798 79.1413 259.636 78.672 258.164 78.672C256.649 78.672 255.444 79.1627 254.548 80.144C253.652 81.104 253.204 82.5013 253.204 84.336V94H250.324V84.08C250.324 82.3307 249.886 80.9973 249.012 80.08C248.158 79.1413 246.996 78.672 245.524 78.672C244.009 78.672 242.804 79.1627 241.908 80.144C241.012 81.104 240.564 82.5013 240.564 84.336V94H237.652V76.464H240.564V78.992C241.14 78.0747 241.908 77.3707 242.868 76.88C243.849 76.3893 244.926 76.144 246.1 76.144C247.572 76.144 248.873 76.4747 250.004 77.136C251.134 77.7973 251.977 78.768 252.532 80.048C253.022 78.8107 253.833 77.8507 254.964 77.168C256.094 76.4853 257.353 76.144 258.74 76.144ZM286.172 76.464V94H283.26V91.408C282.706 92.304 281.927 93.008 280.924 93.52C279.943 94.0107 278.855 94.256 277.66 94.256C276.295 94.256 275.068 93.9787 273.98 93.424C272.892 92.848 272.028 91.9947 271.388 90.864C270.77 89.7333 270.46 88.3573 270.46 86.736V76.464H273.34V86.352C273.34 88.08 273.778 89.4133 274.652 90.352C275.527 91.2693 276.722 91.728 278.236 91.728C279.794 91.728 281.02 91.248 281.916 90.288C282.812 89.328 283.26 87.9307 283.26 86.096V76.464H286.172Z" fill="url(#paint1_linear_81566_3102)"/>
</g>
<defs>
<filter id="filter0_d_81566_3102" x="31.4658" y="15.149" width="234.535" height="49.259" filterUnits="userSpaceOnUse" color-interpolation-filters="sRGB">
<feFlood flood-opacity="0" result="BackgroundImageFix"/>
<feColorMatrix in="SourceAlpha" type="matrix" values="0 0 0 0 0 0 0 0 0 0 0 0 0 0 0 0 0 0 127 0" result="hardAlpha"/>
<feOffset dy="4"/>
<feGaussianBlur stdDeviation="2"/>
<feComposite in2="hardAlpha" operator="out"/>
<feColorMatrix type="matrix" values="0 0 0 0 0 0 0 0 0 0 0 0 0 0 0 0 0 0 0.25 0"/>
<feBlend mode="normal" in2="BackgroundImageFix" result="effect1_dropShadow_81566_3102"/>
<feBlend mode="normal" in="SourceGraphic" in2="effect1_dropShadow_81566_3102" result="shape"/>
</filter>
<filter id="filter1_d_81566_3102" x="0.838867" y="70.32" width="289.333" height="40" filterUnits="userSpaceOnUse" color-interpolation-filters="sRGB">
<feFlood flood-opacity="0" result="BackgroundImageFix"/>
<feColorMatrix in="SourceAlpha" type="matrix" values="0 0 0 0 0 0 0 0 0 0 0 0 0 0 0 0 0 0 127 0" result="hardAlpha"/>
<feOffset dy="4"/>
<feGaussianBlur stdDeviation="2"/>
<feComposite in2="hardAlpha" operator="out"/>
<feColorMatrix type="matrix" values="0 0 0 0 0 0 0 0 0 0 0 0 0 0 0 0 0 0 0.25 0"/>
<feBlend mode="normal" in2="BackgroundImageFix" result="effect1_dropShadow_81566_3102"/>
<feBlend mode="normal" in="SourceGraphic" in2="effect1_dropShadow_81566_3102" result="shape"/>
</filter>
<linearGradient id="paint0_linear_81566_3102" x1="32" y1="38.5" x2="264" y2="38.5" gradientUnits="userSpaceOnUse">
<stop stop-color="#EB7703"/>
<stop offset="1" stop-color="#DB461A"/>
</linearGradient>
<linearGradient id="paint1_linear_81566_3102" x1="2" y1="83" x2="289" y2="83" gradientUnits="userSpaceOnUse">
<stop stop-color="#EB7703"/>
<stop offset="1" stop-color="#854302"/>
</linearGradient>
</defs>
</svg>
