<svg width="39" height="39" viewBox="0 0 39 39" fill="none" xmlns="http://www.w3.org/2000/svg">
<circle cx="19.5" cy="19.5" r="19.5" fill="url(#paint0_linear_81563_1462)"/>
<path d="M13.25 22.6667H17C17.3315 22.6667 17.6495 22.5332 17.8839 22.2957C18.1183 22.0581 18.25 21.7359 18.25 21.4C18.25 21.0641 18.1183 20.7419 17.8839 20.5043C17.6495 20.2668 17.3315 20.1333 17 20.1333H13.25C12.9185 20.1333 12.6005 20.2668 12.3661 20.5043C12.1317 20.7419 12 21.0641 12 21.4C12 21.7359 12.1317 22.0581 12.3661 22.2957C12.6005 22.5332 12.9185 22.6667 13.25 22.6667ZM28.25 10H10.75C9.75544 10 8.80161 10.4004 8.09835 11.113C7.39509 11.8256 7 12.7922 7 13.8V25.2C7 26.2078 7.39509 27.1744 8.09835 27.887C8.80161 28.5996 9.75544 29 10.75 29H28.25C29.2446 29 30.1984 28.5996 30.9017 27.887C31.6049 27.1744 32 26.2078 32 25.2V13.8C32 12.7922 31.6049 11.8256 30.9017 11.113C30.1984 10.4004 29.2446 10 28.25 10ZM29.5 25.2C29.5 25.5359 29.3683 25.8581 29.1339 26.0957C28.8995 26.3332 28.5815 26.4667 28.25 26.4667H10.75C10.4185 26.4667 10.1005 26.3332 9.86612 26.0957C9.6317 25.8581 9.5 25.5359 9.5 25.2V17.6H29.5V25.2ZM29.5 15.0667H9.5V13.8C9.5 13.4641 9.6317 13.1419 9.86612 12.9043C10.1005 12.6668 10.4185 12.5333 10.75 12.5333H28.25C28.5815 12.5333 28.8995 12.6668 29.1339 12.9043C29.3683 13.1419 29.5 13.4641 29.5 13.8V15.0667Z" fill="white"/>
<defs>
<linearGradient id="paint0_linear_81563_1462" x1="19.5" y1="0" x2="19.5" y2="39" gradientUnits="userSpaceOnUse">
<stop stop-color="#EB7802"/>
<stop offset="1" stop-color="#DA411D"/>
</linearGradient>
</defs>
</svg>
