<svg width="39" height="39" viewBox="0 0 39 39" fill="none" xmlns="http://www.w3.org/2000/svg">
<circle cx="19.5" cy="19.5" r="19.5" fill="url(#paint0_linear_81563_1463)"/>
<path d="M29.8 15.5C29.4817 15.5 29.1765 15.6185 28.9515 15.8295C28.7264 16.0405 28.6 16.3266 28.6 16.625V25.625C28.6 25.9234 28.4736 26.2095 28.2485 26.4205C28.0235 26.6315 27.7183 26.75 27.4 26.75H10.6C10.2817 26.75 9.97652 26.6315 9.75147 26.4205C9.52643 26.2095 9.4 25.9234 9.4 25.625V14.8362L16.456 21.4513C17.131 22.0833 18.046 22.4383 19 22.4383C19.954 22.4383 20.869 22.0833 21.544 21.4513L25.852 17.4237C26.078 17.2119 26.2049 16.9246 26.2049 16.625C26.2049 16.3254 26.078 16.0381 25.852 15.8263C25.626 15.6144 25.3196 15.4954 25 15.4954C24.6804 15.4954 24.374 15.6144 24.148 15.8263L19.852 19.865C19.7404 19.9704 19.6077 20.0541 19.4615 20.1113C19.3153 20.1684 19.1584 20.1978 19 20.1978C18.8416 20.1978 18.6847 20.1684 18.5385 20.1113C18.3923 20.0541 18.2596 19.9704 18.148 19.865L11.092 13.25H20.2C20.5183 13.25 20.8235 13.1315 21.0485 12.9205C21.2736 12.7095 21.4 12.4234 21.4 12.125C21.4 11.8266 21.2736 11.5405 21.0485 11.3295C20.8235 11.1185 20.5183 11 20.2 11H10.6C9.64522 11 8.72955 11.3556 8.05442 11.9885C7.37928 12.6214 7 13.4799 7 14.375V25.625C7 26.5201 7.37928 27.3786 8.05442 28.0115C8.72955 28.6444 9.64522 29 10.6 29H27.4C28.3548 29 29.2705 28.6444 29.9456 28.0115C30.6207 27.3786 31 26.5201 31 25.625V16.625C31 16.3266 30.8736 16.0405 30.6485 15.8295C30.4235 15.6185 30.1183 15.5 29.8 15.5ZM25 13.25H29.8C30.1183 13.25 30.4235 13.1315 30.6485 12.9205C30.8736 12.7095 31 12.4234 31 12.125C31 11.8266 30.8736 11.5405 30.6485 11.3295C30.4235 11.1185 30.1183 11 29.8 11H25C24.6817 11 24.3765 11.1185 24.1515 11.3295C23.9264 11.5405 23.8 11.8266 23.8 12.125C23.8 12.4234 23.9264 12.7095 24.1515 12.9205C24.3765 13.1315 24.6817 13.25 25 13.25Z" fill="white"/>
<defs>
<linearGradient id="paint0_linear_81563_1463" x1="19.5" y1="0" x2="19.5" y2="39" gradientUnits="userSpaceOnUse">
<stop stop-color="#EB7802"/>
<stop offset="1" stop-color="#DA411D"/>
</linearGradient>
</defs>
</svg>
