<svg width="39" height="39" viewBox="0 0 39 39" fill="none" xmlns="http://www.w3.org/2000/svg">
<circle cx="19.5" cy="19.5" r="19.5" fill="url(#paint0_linear_81569_397)"/>
<path d="M20.59 20.0001L18.29 22.2901C18.1963 22.3831 18.1219 22.4937 18.0711 22.6155C18.0203 22.7374 17.9942 22.8681 17.9942 23.0001C17.9942 23.1321 18.0203 23.2628 18.0711 23.3847C18.1219 23.5065 18.1963 23.6171 18.29 23.7101C18.383 23.8038 18.4936 23.8782 18.6154 23.929C18.7373 23.9798 18.868 24.0059 19 24.0059C19.132 24.0059 19.2627 23.9798 19.3846 23.929C19.5064 23.8782 19.617 23.8038 19.71 23.7101L23.71 19.7101C23.801 19.615 23.8724 19.5029 23.92 19.3801C24.02 19.1366 24.02 18.8636 23.92 18.6201C23.8724 18.4973 23.801 18.3852 23.71 18.2901L19.71 14.2901C19.6168 14.1969 19.5061 14.1229 19.3842 14.0724C19.2624 14.022 19.1319 13.996 19 13.996C18.8681 13.996 18.7376 14.022 18.6158 14.0724C18.4939 14.1229 18.3832 14.1969 18.29 14.2901C18.1968 14.3833 18.1228 14.494 18.0723 14.6159C18.0219 14.7377 17.9959 14.8682 17.9959 15.0001C17.9959 15.132 18.0219 15.2625 18.0723 15.3843C18.1228 15.5062 18.1968 15.6169 18.29 15.7101L20.59 18.0001H11C10.7348 18.0001 10.4804 18.1055 10.2929 18.293C10.1054 18.4805 10 18.7349 10 19.0001C10 19.2653 10.1054 19.5197 10.2929 19.7072C10.4804 19.8947 10.7348 20.0001 11 20.0001H20.59ZM20 9.0001C18.1311 8.99176 16.2972 9.50731 14.7065 10.4883C13.1157 11.4693 11.8317 12.8764 11 14.5501C10.8807 14.7888 10.861 15.0651 10.9454 15.3183C11.0298 15.5715 11.2113 15.7808 11.45 15.9001C11.6887 16.0194 11.965 16.0391 12.2182 15.9547C12.4714 15.8703 12.6807 15.6888 12.8 15.4501C13.4322 14.1734 14.3938 13.0887 15.5855 12.3081C16.7773 11.5275 18.1558 11.0792 19.5788 11.0097C21.0017 10.9402 22.4174 11.2519 23.6795 11.9126C24.9417 12.5733 26.0045 13.5591 26.7581 14.7681C27.5118 15.9771 27.9289 17.3653 27.9664 18.7895C28.0039 20.2136 27.6605 21.6219 26.9715 22.8689C26.2826 24.1159 25.2731 25.1563 24.0475 25.8825C22.8219 26.6088 21.4246 26.9946 20 27.0001C18.5089 27.0066 17.0462 26.5925 15.7797 25.8053C14.5132 25.0182 13.4944 23.89 12.84 22.5501C12.7207 22.3114 12.5114 22.1299 12.2582 22.0455C12.005 21.9611 11.7287 21.9808 11.49 22.1001C11.2513 22.2194 11.0698 22.4287 10.9854 22.6819C10.901 22.9351 10.9207 23.2114 11.04 23.4501C11.8328 25.0456 13.0375 26.4003 14.5295 27.3741C16.0214 28.348 17.7464 28.9055 19.5261 28.9891C21.3058 29.0727 23.0755 28.6793 24.6521 27.8496C26.2288 27.0199 27.5552 25.7841 28.4941 24.2699C29.433 22.7558 29.9503 21.0182 29.9925 19.2371C30.0347 17.456 29.6003 15.6959 28.7342 14.1389C27.8682 12.582 26.6018 11.2847 25.0663 10.3812C23.5307 9.47774 21.7816 9.00094 20 9.0001Z" fill="white"/>
<defs>
<linearGradient id="paint0_linear_81569_397" x1="19.5" y1="0" x2="19.5" y2="39" gradientUnits="userSpaceOnUse">
<stop stop-color="#EB7802"/>
<stop offset="1" stop-color="#DA411D"/>
</linearGradient>
</defs>
</svg>
