<svg width="39" height="39" viewBox="0 0 39 39" fill="none" xmlns="http://www.w3.org/2000/svg">
<circle cx="19.5" cy="19.5" r="19.5" fill="url(#paint0_linear_81702_395)"/>
<path d="M27.4582 20.9603C27.2382 20.9603 27.0082 20.8903 26.7882 20.8403C26.3427 20.7421 25.9048 20.6118 25.4782 20.4503C25.0143 20.2815 24.5043 20.2903 24.0465 20.4749C23.5886 20.6595 23.2153 21.007 22.9982 21.4503L22.7782 21.9003C21.8042 21.3585 20.9092 20.6855 20.1182 19.9003C19.3329 19.1093 18.66 18.2143 18.1182 17.2403L18.5382 16.9603C18.9815 16.7432 19.3289 16.3698 19.5136 15.912C19.6982 15.4542 19.7069 14.9442 19.5382 14.4803C19.3794 14.0527 19.2491 13.6151 19.1482 13.1703C19.0982 12.9503 19.0582 12.7203 19.0282 12.4903C18.9067 11.7859 18.5378 11.1481 17.9878 10.6916C17.4378 10.2351 16.7429 9.98993 16.0282 10.0003H13.0282C12.5972 9.99627 12.1704 10.0851 11.7769 10.2608C11.3833 10.4366 11.0323 10.695 10.7476 11.0186C10.4629 11.3422 10.2513 11.7233 10.1272 12.136C10.003 12.5488 9.96925 12.9834 10.0282 13.4103C10.5609 17.5997 12.4742 21.4922 15.4658 24.473C18.4574 27.4537 22.3569 29.3528 26.5482 29.8703H26.9282C27.6656 29.8714 28.3776 29.6008 28.9282 29.1103C29.2445 28.8274 29.4973 28.4805 29.6696 28.0926C29.842 27.7048 29.9301 27.2848 29.9282 26.8603V23.8603C29.9159 23.1657 29.663 22.4969 29.2125 21.968C28.762 21.4391 28.142 21.0829 27.4582 20.9603ZM27.9582 26.9603C27.958 27.1023 27.9276 27.2426 27.8689 27.3719C27.8103 27.5013 27.7248 27.6166 27.6182 27.7103C27.5068 27.8073 27.3761 27.8797 27.2348 27.9228C27.0935 27.9659 26.9447 27.9787 26.7982 27.9603C23.0531 27.4801 19.5744 25.7668 16.9109 23.0906C14.2474 20.4144 12.5506 16.9277 12.0882 13.1803C12.0723 13.0338 12.0862 12.8856 12.1292 12.7447C12.1721 12.6038 12.2432 12.473 12.3382 12.3603C12.4319 12.2536 12.5472 12.1682 12.6765 12.1095C12.8059 12.0509 12.9462 12.0205 13.0882 12.0203H16.0882C16.3207 12.0151 16.5478 12.0912 16.7303 12.2354C16.9128 12.3796 17.0394 12.5829 17.0882 12.8103C17.1282 13.0837 17.1782 13.3537 17.2382 13.6203C17.3537 14.1475 17.5074 14.6655 17.6982 15.1703L16.2982 15.8203C16.1785 15.8752 16.0708 15.9533 15.9813 16.0499C15.8919 16.1466 15.8224 16.2599 15.7768 16.3835C15.7313 16.5071 15.7106 16.6384 15.716 16.77C15.7214 16.9016 15.7527 17.0309 15.8082 17.1503C17.2474 20.2331 19.7254 22.7111 22.8082 24.1503C23.0516 24.2503 23.3247 24.2503 23.5682 24.1503C23.6929 24.1057 23.8075 24.0368 23.9053 23.9475C24.0032 23.8582 24.0823 23.7504 24.1382 23.6303L24.7582 22.2303C25.2751 22.4152 25.8028 22.5688 26.3382 22.6903C26.6048 22.7503 26.8748 22.8003 27.1482 22.8403C27.3756 22.8891 27.5789 23.0157 27.7231 23.1982C27.8673 23.3807 27.9433 23.6078 27.9382 23.8403L27.9582 26.9603Z" fill="white"/>
<defs>
<linearGradient id="paint0_linear_81702_395" x1="19.5" y1="0" x2="19.5" y2="39" gradientUnits="userSpaceOnUse">
<stop stop-color="#EB7802"/>
<stop offset="1" stop-color="#DA411D"/>
</linearGradient>
</defs>
</svg>
