<svg width="39" height="39" viewBox="0 0 39 39" fill="none" xmlns="http://www.w3.org/2000/svg">
<circle cx="19.5" cy="19.5" r="19.5" fill="url(#paint0_linear_81563_1464)"/>
<path d="M19 19.5C20.3261 19.5 21.5979 18.9469 22.5355 17.9623C23.4732 16.9777 24 15.6424 24 14.25C24 12.8576 23.4732 11.5223 22.5355 10.5377C21.5979 9.55312 20.3261 9 19 9C17.6739 9 16.4021 9.55312 15.4645 10.5377C14.5268 11.5223 14 12.8576 14 14.25C14 15.6424 14.5268 16.9777 15.4645 17.9623C16.4021 18.9469 17.6739 19.5 19 19.5ZM22.3333 14.25C22.3333 15.1783 21.9821 16.0685 21.357 16.7249C20.7319 17.3813 19.8841 17.75 19 17.75C18.1159 17.75 17.2681 17.3813 16.643 16.7249C16.0179 16.0685 15.6667 15.1783 15.6667 14.25C15.6667 13.3217 16.0179 12.4315 16.643 11.7751C17.2681 11.1187 18.1159 10.75 19 10.75C19.8841 10.75 20.7319 11.1187 21.357 11.7751C21.9821 12.4315 22.3333 13.3217 22.3333 14.25ZM29 28.25C29 30 27.3333 30 27.3333 30H10.6667C10.6667 30 9 30 9 28.25C9 26.5 10.6667 21.25 19 21.25C27.3333 21.25 29 26.5 29 28.25ZM27.3333 28.243C27.3317 27.8125 27.0767 26.5175 25.9467 25.331C24.86 24.19 22.815 23 19 23C15.185 23 13.14 24.19 12.0533 25.331C10.9233 26.5175 10.67 27.8125 10.6667 28.243H27.3333Z" fill="white"/>
<defs>
<linearGradient id="paint0_linear_81563_1464" x1="19.5" y1="0" x2="19.5" y2="39" gradientUnits="userSpaceOnUse">
<stop stop-color="#EB7802"/>
<stop offset="1" stop-color="#DA411D"/>
</linearGradient>
</defs>
</svg>
